<svg width="84" height="43" viewBox="0 0 84 43" fill="none" xmlns="http://www.w3.org/2000/svg">
<path d="M0.68 9.36C0.68 6.82667 1.8 4.73333 4.04 3.08C6.28 1.4 9.24 0.559999 12.92 0.559999C14.8667 0.559999 16.6133 0.759998 18.16 1.16C19.7067 1.53333 20.9333 2.01333 21.84 2.6C22.7467 3.18667 23.5067 3.86667 24.12 4.64C25.1333 5.97333 25.6267 7.46667 25.6 9.12C25.6 10.7467 24.96 12.2 23.68 13.48C22.4 14.76 20.8533 15.4267 19.04 15.48C21.3067 15.64 23.2667 16.3867 24.92 17.72C26.6 19.0533 27.44 20.7333 27.44 22.76C27.44 25.4267 26.4133 27.5067 24.36 29C22.3067 30.4933 19.8 31.24 16.84 31.24C13.9067 31.24 11.9067 30.8533 10.84 30.08L12.08 26.72C13.2533 27.3333 14.6133 27.64 16.16 27.64C17.7333 27.64 19.0133 27.1867 20 26.28C20.9867 25.3467 21.48 24.12 21.48 22.6C21.48 21.08 20.8 19.8 19.44 18.76C18.1067 17.72 16.28 17.2 13.96 17.2L14.32 14.24C15.92 14.24 17.2667 13.8667 18.36 13.12C19.48 12.3467 20.0533 11.2 20.08 9.68C20.1333 8.16 19.4533 6.88 18.04 5.84C16.52 4.74667 14.44 4.2 11.8 4.2C10.0667 4.2 8.37333 4.65333 6.72 5.56C5.06667 6.44 4.24 7.62666 4.24 9.12C4.24 9.84 4.53333 10.4533 5.12 10.96C5.70667 11.44 6.48 11.7333 7.44 11.84L7 14.8C4.97333 14.72 3.41333 14.1467 2.32 13.08C1.22667 12.0133 0.68 10.7733 0.68 9.36ZM12.12 23.32C11.6933 26.1733 10.8667 28.2 9.64 29.4C8.41333 30.5733 6.97333 31.16 5.32 31.16C3.66667 31.16 2.41333 30.7333 1.56 29.88C0.706667 29.0267 0.28 27.9333 0.28 26.6C0.28 23.4533 2.66667 20.7733 7.44 18.56C7.57333 17.44 7.76 15.9333 8 14.04C8.26667 12.12 8.46667 10.5733 8.6 9.4C8.76 8.22667 8.86667 7.45333 8.92 7.08C10.0133 6.38667 11.28 6.04 12.72 6.04C13.3867 6.04 14.0267 6.10667 14.64 6.24L12.12 23.32ZM3.24 26.08C3.24 27.04 3.69333 27.52 4.6 27.52C4.97333 27.52 5.36 27.28 5.76 26.8C6.18667 26.2933 6.48 25.5067 6.64 24.44L7 21.96C4.49333 23.3733 3.24 24.7467 3.24 26.08ZM46.4013 31.2C43.9479 31.2 42.3213 30.3467 41.5213 28.64C40.1346 30.3733 38.3479 31.24 36.1613 31.24C34.0013 31.24 32.1746 30.5067 30.6813 29.04C29.2146 27.5733 28.4813 25.64 28.4813 23.24C28.4813 19.7467 29.5079 16.96 31.5613 14.88C33.6146 12.8 36.2146 11.76 39.3613 11.76C39.4413 11.76 39.5213 11.76 39.6013 11.76C40.9346 11.76 42.1613 11.9867 43.2813 12.44C44.0013 11.9867 44.8679 11.76 45.8813 11.76C46.9213 11.76 47.6679 11.8933 48.1213 12.16C47.8813 14.1333 47.6279 16.08 47.3613 18C47.0946 19.8933 46.9079 21.24 46.8013 22.04C46.5613 23.8533 46.4413 25.16 46.4413 25.96C46.4413 27.0267 46.8679 27.56 47.7213 27.56C48.3879 27.56 49.0946 27.12 49.8413 26.24C50.5879 25.3333 51.2413 23.92 51.8013 22C52.5746 22.6933 53.1079 23.4667 53.4013 24.32C52.6279 26.8533 51.5879 28.64 50.2813 29.68C48.9746 30.6933 47.6813 31.2 46.4013 31.2ZM39.9613 14.88C38.2546 14.88 36.8946 15.5333 35.8813 16.84C34.8946 18.12 34.3079 20.04 34.1213 22.6C34.0946 22.84 34.0813 23.0667 34.0813 23.28C34.0813 24.5867 34.3879 25.6267 35.0013 26.4C35.6413 27.1733 36.4546 27.56 37.4413 27.56C39.1213 27.56 40.3879 26.3733 41.2413 24L42.2013 15.36C41.4279 15.04 40.6813 14.88 39.9613 14.88ZM55.8753 31.28C54.2486 31.28 52.9686 30.8267 52.0353 29.92C51.102 28.9867 50.6353 27.72 50.6353 26.12C50.6353 25.6933 51.3553 19.36 52.7953 7.12C53.1686 3.97333 54.1686 1.98667 55.7953 1.16C56.542 0.759998 57.4353 0.559999 58.4753 0.559999C61.9953 0.559999 63.7553 2.18666 63.7553 5.44C63.7553 5.70667 63.742 5.98667 63.7153 6.28C63.4486 9.85333 61.2086 13.4933 56.9953 17.2C56.862 18.5067 56.7153 19.7733 56.5553 21C56.2353 23.7467 56.0753 25.2667 56.0753 25.56C56.0753 26.9467 56.6753 27.64 57.8753 27.64C59.182 27.64 60.3953 26.8933 61.5153 25.4C62.662 23.88 63.542 21.9467 64.1553 19.6C64.3953 19.68 64.7286 19.9067 65.1553 20.28C65.582 20.6267 65.8753 20.9333 66.0353 21.2C65.6086 23.4133 64.6486 25.5333 63.1553 27.56C62.4086 28.6 61.462 29.4533 60.3153 30.12C59.0086 30.8933 57.5286 31.28 55.8753 31.28ZM57.4353 13.2C59.8886 10.5067 61.1153 8.09333 61.1153 5.96C61.1153 4.68 60.6353 4.04 59.6753 4.04C59.062 4.09333 58.6486 4.49333 58.4353 5.24C58.2486 5.98666 58.062 7.2 57.8753 8.88C57.7153 10.56 57.6086 11.6 57.5553 12L57.4353 13.2ZM69.6219 42.88C68.1019 42.88 66.7952 42.4133 65.7019 41.48C64.6085 40.5733 64.0619 39.24 64.0619 37.48C64.0619 35.32 65.1552 33.2133 67.3419 31.16C65.7952 31.0267 64.5552 30.52 63.6219 29.64C62.6885 28.76 62.2219 27.52 62.2219 25.92C62.2219 25.1733 62.3152 24.0533 62.5019 22.56C62.6885 21.0667 62.8885 19.4533 63.1019 17.72C63.3152 15.9867 63.5419 14.1467 63.7819 12.2C64.6085 11.9067 65.3685 11.76 66.0619 11.76C66.7552 11.76 67.2752 11.7867 67.6219 11.84C67.9685 11.8933 68.3019 12.0933 68.6219 12.44C68.9419 12.7867 69.1019 13.28 69.1019 13.92L67.7819 24.12C67.7285 24.5467 67.7019 24.84 67.7019 25C67.7019 26.5733 68.4219 27.36 69.8619 27.36C71.1685 27.36 72.2352 26.7467 73.0619 25.52C73.1419 24.9067 73.3419 23.1467 73.6619 20.24C73.9819 17.3067 74.2485 15.0267 74.4619 13.4C74.7019 12.8933 75.1952 12.4933 75.9419 12.2C76.7152 11.9067 77.3419 11.76 77.8219 11.76C78.6752 11.76 79.4485 11.8667 80.1419 12.08L78.2619 26.84C81.3819 27.4 83.2485 29.5467 83.8619 33.28C83.7552 33.7867 83.2485 34.5867 82.3419 35.68C81.8085 32.3467 80.3419 30.32 77.9419 29.6L77.3019 34.6C77.0085 37 76.2485 38.9733 75.0219 40.52C73.7952 42.0933 71.9952 42.88 69.6219 42.88ZM67.1819 36.72C67.1819 37.6 67.3952 38.2533 67.8219 38.68C68.2485 39.1067 68.8085 39.32 69.5019 39.32C70.2219 39.32 70.7685 39.0267 71.1419 38.44C71.5152 37.8533 71.8085 36.68 72.0219 34.92L72.5419 30.52C69.0485 32.3333 67.2619 34.4 67.1819 36.72Z" fill="#060B09"/>
</svg>
