<svg id="Ebene_1" data-name="Ebene 1" xmlns="http://www.w3.org/2000/svg" viewBox="0 0 368.25 368.31"><defs><style>.cls-1{fill:#ffe500;}.cls-2{fill:#0062a7;}</style></defs><path class="cls-1" d="M228.05,60.18c4.84-1,5.42-12-1.05-9.83C222.56,51.84,222.27,61.32,228.05,60.18Z"/><path class="cls-1" d="M119.9,194.22c-6-14.22-17.77-27.88-29.23-33.57l-.45.09c-.13,0-.26.09-.18.27,16.25,25.4,32,51.52,48.28,76.92C134.64,221.89,125.92,208.54,119.9,194.22Z"/><path class="cls-1" d="M80.15,156a6.32,6.32,0,0,0,4.66-2.35C83.21,153,79.1,152.91,80.15,156Z"/><path class="cls-1" d="M159.28,212.19c-2.45-1.15-4.46-2.49-6.25-3.18,0-2.84,4.8-8,3.3-11.41a2.57,2.57,0,0,0-3.28-1.21c-1.89.64-2.37,4.14-3,6a62.17,62.17,0,0,1-2.41,6.57c-1.93-2.7-2-7.82-4.69-8.17-5.12-.65-2.82,5-1.69,7.82,1.79,4.42,5.44,16.5,8.66,16.24,5.46-.44.45-8.76-.74-11.76,3,1.06,12.35,6.93,14.56,6.16a2.59,2.59,0,0,0,1.39-3.55C164.42,213.7,161.41,213.19,159.28,212.19Z"/><path class="cls-1" d="M218.37,167.05c-1.18,1.23-3.52,1.68-5.34,2.48,2.41-3.62,3.34-8.23,3.81-13.14a8.44,8.44,0,0,1-2.36,1.32h0a2.13,2.13,0,0,1-1.55-.35c-2.29,2.89-6.2,4.71-9.85,6.71,1.51,3.83-2.84,8.23-8.16,8.19-2.95,0-4.89-2.14-6.11-4.84-4.5,1-8.27.94-12.71,1.87,1.1,5.1,3.26,10.3,6.41,13.19-.5-1.16-1.42-4-.78-5,4.61,3.11,9.91,6.74,15.87,6.84-1.86-.42-3.12-1.75-4.36-3.09,4.85-.73,8.73.48,14.5-1.07,1.18-.32,2.84-.61,3.19-1.58-1.73.55-4.33-.11-6-.66,5.21-3.35,10.92-6.36,13.85-11.21C218.51,166.75,218.39,166.87,218.37,167.05Z"/><path class="cls-1" d="M200.45,165.07c1.18-.61,1.49-2,2.73-1.49-.89-8.48-16.83-5.05-14.72,3.45,0,.22.24.23.32.4C192.5,167.12,197.49,166.6,200.45,165.07Z"/><path class="cls-1" d="M214,324.26c-.77-5.12-8.68-3.53-7.68,1.32C209,324.91,211.43,324.67,214,324.26Z"/><path class="cls-1" d="M62.81,117.69c-4.54-1.22-6.86,4.29-3.71,7.06A19.59,19.59,0,0,0,62.81,117.69Z"/><path class="cls-1" d="M150.38,109.31c4.19-.68,2.33-8.52-2.17-6.1C145.26,104.79,147.27,109.82,150.38,109.31Z"/><path class="cls-1" d="M126.62,308.29c0,.07-.05.14-.08.22l.31-.27Z"/><path class="cls-1" d="M274.08,292.23c-4.55,2.51.31,9.53,4.15,9C284.58,300.28,280.31,288.8,274.08,292.23Z"/><path class="cls-1" d="M178.36,90.57c-5.82,2.06.23,15.68,5.24,14.36C189.52,103.36,183.73,88.66,178.36,90.57Z"/><path class="cls-1" d="M176.16,53.16c7.42,3.82,7.75-13.34.11-9.84C173.27,44.7,172.89,51.48,176.16,53.16Z"/><path class="cls-1" d="M137.14,270.18c.93,9.91,8.83,11.61,19.11,10.15-4.67-8.4-10.55-17.5-16-25.74C138.77,259.42,136.61,264.6,137.14,270.18Z"/><path class="cls-1" d="M291.94,67.58a158.18,158.18,0,0,0-47.28-30.39c-25.21-10.3-58.82-17.29-96-7.91C124.12,35.48,104.08,45,88.41,57.13,57,81.46,36.53,113,28.45,152.22c-4,19.21-5.26,43.25.82,67.59,6.17,24.65,15.66,43.38,27.76,59.8,23.29,31.6,56.37,51.95,94.91,60.24a148.8,148.8,0,0,0,67.59-.83c12.35-3.12,23.4-6.64,33.43-11.44,9.69-4.63,18.12-10.31,26.38-16.32a145,145,0,0,0,38.75-41.72c9.57-15.77,17.5-32.92,21.75-53,4-18.8,5.59-43.15-.65-67.87C330,112.38,312.68,86.71,291.94,67.58Zm19.32,83.94c.82,1.09,4.37,4.27,1.14,5.61-4.74,2-9-7.48-8.29-12.1,1.57-10.27,19.82-12.5,21.15.62a10.9,10.9,0,0,1-2.27,7.24c-.81.91-4,3.7-6.37,3.16-2.69-.63-2.9-10.15-4.66-12.61C308.67,144.27,309.2,148.8,311.26,151.52Zm1,15.23c-3.51.73-6.06-4.66-2-6.38C314.94,158.39,316.51,165.84,312.24,166.75Zm1.85-54.35c-4.8,9.36-23,15-26,1-1.58-7.51,5.07-13.33,11.78-15.7C310.25,94.09,318.74,103.32,314.09,112.4Zm-20.2-32.83c2.08,0,6,4.35,6.17,6.23.32,2.83-6.48,7.51-8.6,9.45-1.72,1.57-3,2.57-5,4.27-1.73,1.54-7.1,6.34-8.12,1.42-.62-3,5.44-7,6.76-8.15,3.1-2.75,5.24-4.75,8.16-7C291.15,83.68,290.26,79.53,293.89,79.57ZM277.56,65.82c5.49-.27,12.36,6.06,9.86,13-1.92,5.32-11.17,10.09-20.32,10.42-1.79.07-5.51-1.48-3.91-4.34,1.14-2.06,5.78-1.34,9.51-2.63C265.59,78.51,267.64,66.3,277.56,65.82Zm-21.24,2.42c2.09-3.49,3.42-6.08,5.41-9-2.1-.88-4.32-4.82-1.45-6,2.48-1,8,2.78,8.41,4.61s-1.63,4-2.77,5.93c-2.14,3.59-4.19,7.22-6.62,11.16-1,1.61-2.38,4.45-4.17,4.81a3.54,3.54,0,0,1-3.37-1.65C250.45,74.78,255.44,69.71,256.32,68.24ZM234,48c8.12-3.56,4.45,6,3.08,10.59-1,3.21-1.52,8.07-4.34,8.59-1.94.35-3-1.14-3.38-2.83-9.5,4.65-15.28-8.63-9.55-16C223,44.12,231.36,42.19,234,48ZM212.9,32.64c5.26-2.78,6.56,5.08,2.89,6.19S209.23,34.57,212.9,32.64Zm-1.38,8.22c6.62-3.59,2.89,8.93,2.45,11-.38,1.76-.61,8.12-3.3,9.08-6.22,2.23-2.76-8.08-2.18-10.77C209.15,47.07,209.2,42.13,211.52,40.86ZM191.84,55.59c-.43-3,.23-5.14.52-9,.26-3.52.12-8.07,2.4-8.9,1.53-.55,3.05.18,3.92,2,2.19-2.14,7.21-2.4,7.28,1.33,0,3.31-5.39,2.63-7.05,4.47-1.07,1.19-.77,4-1,6.74-.11,1.54-1,9.33-5.06,6.16A6.07,6.07,0,0,1,191.84,55.59ZM173.66,38.48c14.61-6.14,19.72,16.69,7.36,20.24C167.78,62.52,163,43,173.66,38.48Zm17.74,60c.83,5.67-3.28,12.8-10.8,11.3-8.82-1.77-14.87-19.34-4.27-23.44C184.21,83.26,190.17,90,191.4,98.44ZM154,41.53c-3.62-8.24,5.75-10.29,5.74-1.63,4.76-1.16,7,4.88,1.09,5.39-.12,4,3.91,11.41,2,14.32a3.31,3.31,0,0,1-4,.82c-2.77-1.73-2.17-10.25-3.72-13.74C151,47.88,148.92,41.93,154,41.53Zm15.84,73.67c-2.53.21-4.33-5.76-5-7.4-1.53-3.73-2.31-6.35-3.75-9.29-1.67.28-2.93,1-3.86.55-4-2.14,3.27-7.25,6.45-6.21,2,.64,3.83,7.54,4.83,10C169.93,106.48,174.84,114.78,169.79,115.2ZM129.73,39.66c.57-1.22,3-1.7,4-1.27,2.31,1,2.55,5.24,2.94,6.42.85,2.58,1.68,4.26,2.35,7,1.26-1.16,1.69-3.18,2.5-5,.53-1.13,1.6-4.18,4-4.32,3.76-.22,2.25,3.82,1.18,5.84-.56,1-2.1,3.48-2.06,3.68.23,1.18,4.46,2.81,5.35,3.36,1.85,1.13,4.56,2.19,4.28,5a3,3,0,0,1-2.38,2.12c-3.9.79-7.82-5.63-11.37-6.57,1,3.44,4.51,10.94-1.15,10.51-3-.23-6.31-14.36-7.77-18.76C130.81,45.32,128.86,41.52,129.73,39.66Zm12.32,63.16a9.77,9.77,0,0,1,8.52-5.23c8-.07,8.69,10.51,7,17.28-.47,1.91-1.32,7.1-4.07,7.6-5.05.92-1.3-7.23-.74-9.43C146.66,117.5,139.07,109.63,142.05,102.82ZM129.6,58.61c1.67,3.68,6.18,11.12,1,11.72-3.46.4-6-8.7-7.62-12.24-1-2.26-3.16-5.74-.29-7.19C126.29,49.08,127.76,54.56,129.6,58.61ZM119.19,43a3.47,3.47,0,0,1,4.68,4.66C121.24,53,113.5,45.53,119.19,43Zm8.55,65.33c.18-2,5.91-4.24,7.67-3.66,2.15.71,3.74,7.33,4.83,10,.7,1.74,1.38,3.1,2.21,5.16,1.08,2.66,2.65,6.65-.66,7.14-2.76.41-4.48-5.53-5.22-7.35-1.5-3.65-2.29-6.41-3.75-9.29C130,111.31,127.45,111.27,127.74,108.29ZM95.11,59.05c2.8-.71,7,4.14,8.54,5.28,3.09,2.27,5.35,3.85,8.14,5.59-1.48-5.07-2.08-8.13-3.53-14-.37-1.51-1.45-3.67-.55-5,.4-.61,2.54-1.73,4-1,2.46,1.16,2.51,8,4,13.91,1.35,5.41,4.55,14,.48,15.09-1.8.48-5.08-2.11-6.47-3.13C106,73.05,102,70.06,98.22,67.53c-1.5-1-4.83-3.19-5.17-4.79A3.28,3.28,0,0,1,95.11,59.05ZM79.22,83.29c2.33-.94,4.86-1.19,5.39,1.25.41,1.86-1.23,2.65-2.37,3.28s-3.82,1.23-3.18,2.75c.81,2,5.7-1.52,8-1.86,6.21-.9,8.16,6.6,5,10.9-1.56,2.14-9.35,7.37-10.15,1.82-.26-1.82,1.37-2.58,3-3.42,1.1-.55,4.49-1.47,3.32-3.24-1.06-1.59-7.28,2.44-10.1,2-2.5-.35-4-2.67-4.42-4.48C72.76,87.73,76.46,84.41,79.22,83.29ZM66.5,100.12c-1.82-3.67,3.57-8,5.51-5.09s-1.36,5.07-.52,7.82c1.08,3.54,9,4.44,9.5,8.82.53,4.22-4.55,2.78-6.78,1.14-1.65-1.21-2.38-2-3.91-3.18-2.54-1.86-7.21-3.72-7.61-6.4C62.44,101.51,63.65,99.87,66.5,100.12Zm-7.74,12.55c3.49-1.24,8.66-.82,9.48,1.82.65,2.08-1.68,4.86-2.45,6.34-1.16,2.21-2.32,4-3.05,5.75,2.79,1.13,5.6-1,6.28-3.61s-.51-5.73,1.74-6.42c3.45-1.07,3.93,4.29,3.47,6.77A12.3,12.3,0,0,1,72,128.45c-5.45,7.41-16.55,3.77-18.87-3.19C51.24,119.59,54.13,114.32,58.76,112.67Zm-18.44,27.8c3.94,1.06,6.4,1.82,10.2,3.07-.76-3.56-3.91-5.11-4.28-8.48-.26-2.29,1.39-3.93,3.58-3.06s2.8,5.17,4,7.13c2.51.22,10.82-6.33,12.79-2.59,2.69,5.13-7.95,6.22-12.15,8.07,2.41,1.92,7.44.94,8.54,4.11,1.84,5.29-5.92,3.19-8.39,2.4-4.2-1.33-8.54-3-13-4.37-2.17-.68-5.47-1.15-6.16-2.72C33.53,139.68,38.31,139.93,40.32,140.47Zm18.25,26.68c-5.66,6.53-17.39,3-19.14-4.54-.75-3.22.34-8.73,3.12-10,.81-.36,3-1.09,3.73,1.12,1.15,3.3-2.35,3.73-1.65,6.87,1.1,4.88,10.12,4.94,10.78.16.25-1.82-1.39-4,.08-5.39,2.84-2.72,5,1.3,5.31,4.3A12.42,12.42,0,0,1,58.57,167.15ZM78.75,253c1.2,4.25-5.37,6.28-6.59,2-.67-2.32.3-3.59,2.41-4.23A3.13,3.13,0,0,1,78.75,253ZM38.51,175.41c2.64-1.69,7.19-.53,11.37-.43,3.11.08,10.83-.31,8.41,4.61-1.26,2.54-8.66,1.34-11,1.28-2.85-.07-9.22.82-10.07-2.4A3.2,3.2,0,0,1,38.51,175.41Zm-10,1.55a3.23,3.23,0,0,1,2.06-2.52c2.62-1.19,4.24,0,4.81,1.83C36.91,181.19,28.28,183.36,28.55,177Zm3.61,28.25a3.13,3.13,0,0,1,.84-5.08c2.39-1.08,5.75,0,9-.65-1.12-1.81-3.43-3.12-5.67-4.93-1.68-1.36-5.33-3.57-5.58-5.64-.21-1.76,1.65-3.39,3.86-2.89,2.77.63,6.57,6.18,9,7.75,1.75-1.55,3.68-3.14,5.92-5.4,1.57-1.59,8.07-8.76,9.06-2.54.41,2.55-3.77,5.18-5.59,7-2.43,2.37-4.13,4.33-6.46,6.21,2.48,1.44,10.51-2.09,12.36,1,3.1,5.23-5,5.08-8.53,5.23-1.85.08-3.93.24-6.24.33C40.64,205.73,33.54,206.53,32.16,205.21ZM64.81,225.7c-.7,2.58-5.43,2.92-6.51.15-.73-1.86-.38-3.36,1.7-4.31A3.41,3.41,0,0,1,64.81,225.7ZM46.37,251.16c-1.64-1.7-7.34-13.11-.84-13.38,3.63-.14,2.46,6,4.24,8.26,4.61,5.89,18.3-.44,14.62-8.57-1.07-2.36-6.7-5.55-2.49-7.67,4.56-2.31,9.63,6.46,9.28,12.37C70.58,252.42,53.85,259,46.37,251.16Zm25.39,25c-1.56,1.2-3.91,3.62-5.56,3.69-2.33.1-6.15-5.45-7.66-7.79-1.15-1.79-2.14-4.84.53-5.49,3.5-.85,4.8,4.46,7.11,6.28a13.35,13.35,0,0,0,3.41-2.8c-1.66-1.48-7.12-8.89-1.37-9.07,2.56-.07,4.22,4.34,5.81,5.61,3.28-.93,5.23-6.27,9.28-6.09a3.21,3.21,0,0,1,2.56,2.29c.67,3.17-5.9,6.93-8.87,9.27ZM91,297.5c-1.91.33-3-1.62-4.91-3.45-1-1-7-5.25-2.62-7.18,2.28-1,3.67,1.32,5.54,3.09,1.58,1.51,3.94,3,4.18,4.53A2.77,2.77,0,0,1,91,297.5Zm32.36,30.6a3.05,3.05,0,0,1-3.6-1.61c-.87-2.32,2-6.95,2.86-9,1.67-3.77,2.88-6.2,3.89-9-3,2.5-6.86,6.84-10.4,10.31-1.08,1.06-2.8,3-4,3.16s-3.44-1.4-3.77-2.51c-.63-2.09,1.84-7.91,2.44-9.84,1.09-3.48,2.08-6.23,3-9.26-2,1.94-3.87,4.67-6.18,7.56-1,1.29-4.21,7.07-7.17,7.29a3,3,0,0,1-2.93-2.91c-.15-1.64,2.12-4.19,3.31-5.58,3.14-3.67,5.59-6.06,8.78-9.72,1.5-1.73,2.86-4.16,4.93-4.5a4.47,4.47,0,0,1,4.45,2.37c1.21,3-1.29,7.74-2,10-1,3.49-1.84,6.34-2.76,9.44,3.73-3.36,6.55-6.42,10.3-10.26,1.29-1.32,2.21-2.76,3.81-3.11,1.77-.39,4.44.84,5,2.73s-1,4.83-1.7,6.65c-1.77,4.38-3.15,7.51-5,12.23C126,324.38,125.45,327.55,123.39,328.1Zm18.88,4.36c-5.47,2-12.83-1.58-13.23-7.6-.14-2.2,3.2-13.33,5.05-14.34,1.15-.64,3.09-.59,3.86.62,1.52,2.38-.67,5.51-1.15,7-.79,2.44-2.14,5.36-1.6,7.1a3.53,3.53,0,0,0,3.68,2.05c2.59-.6,2.93-4.36,3.76-6.83.6-1.78,1.2-6,3.8-6.61,6.11-1.34,1.72,8.89,1.2,10.5C146.64,327.42,145.37,331.33,142.27,332.46Zm-2.77-28.65c4.11-2.16,4.53,4.66,1.81,5.48C137.92,310.31,137,305.12,139.5,303.81Zm6.92,1.87c3.53-1.05,3.83,4.65,1.37,5.57C144.37,312.52,142.39,306.9,146.42,305.68Zm17.87,32.84c-7.09,2.09-1-12.94-2.47-15.63a2.77,2.77,0,0,0-3.32-1.42c-5,1.21-1.73,13.52-6.35,14.83s-3.5-5.13-2.89-8.53c.71-3.91,1.77-9,2.49-13.12.4-2.35,1.44-10.08,5.68-6.52,2.52,2.11-.24,6.26-.15,9.61,4.87-2.16,10.61-1,11.19,5.68.22,2.43-.63,5.39-1.15,8.17S166.14,338,164.29,338.52Zm10.24,1c-4.65,1.76-3.75-4.61-3.48-7.94.44-5.37.67-9.22,1-14.46.19-2.67-.2-5.7,2.41-6.57,4-1.33,3.63,4.87,3.34,8.44-.35,4.33-1,9.9-1.31,14.29C176.37,335.36,176.43,338.77,174.53,339.48Zm24.26-14c.58,4.7.86,13.39-2,14.2-8,2.22.55-18.86-8.34-15.84-5.17,1.76.44,12.78-3.2,15.37-6,4.25-4.93-8.67-5-13,0-2.68,0-5,0-7,0-2.84-.64-10.75,4.38-8.37,2.71,1.29,1.1,6.43,1.69,9.48C192.08,317.32,197.89,318.13,198.79,325.46Zm-7.52-67.17c2.75-1.53,8.12-3.14,7.69,1-.21,2-3.51,2.16-5.39,3.43.1,1.22,1.34,3.26,1.9,4.75,2.46-1.58,8.44-3.87,8.09.7-.12,1.57-3.09,2.46-4.31,3-1.41.6-4.18,2.21-5.43,2-2.06-.29-3.84-6.56-5.27-9.91-1.23-2.87-5-8.35-4.07-10.86.35-1,10.5-6.79,11.27-2,.46,2.87-3,2.95-5.7,4.19C189.88,255.77,191.06,256.76,191.27,258.29Zm19.22,74.15c3.5.15,7-4.74,9.2-3,3.41,2.65-2.4,6.74-4.34,7.42-8.69,3-17.51-3.63-14.63-13.4,2.78-9.41,19.52-9.89,19.1,3.15-3.44,1.55-8.68,1.58-13,2.63C207.76,331.38,208.84,332.37,210.49,332.44Zm-2.35-64.72c-2.15.46-5.14-3.44-2.21-5.16C209.68,260.36,211.9,266.92,208.14,267.72Zm-4.06-24.64c2.3-.43,4.86,4.12,6.31,5.73,1.85,2.07,4,4,5.71,6.32.13-3.3-.41-5.28-.82-8.71-.34-2.81-2-9.79,2.22-8.63,2.72.76,2.28,9.39,2.5,12.35.31,4.17,2.39,12.62-1.14,12.84-1.68.11-3.64-2.55-4.72-3.71-2.64-2.84-5.58-5.87-8.33-8.83C204.32,248.83,199.61,243.9,204.08,243.08ZM220,305.51c5.33-3,7.31,6.35,1.5,6.24C218.69,311.7,217.3,307,220,305.51Zm7.52,27.92c-1.77-.43-6.27-14.2-6.33-17.41a2.46,2.46,0,0,1,1.17-2.34c4.31-2.87,5.49,4.64,6.66,8.7C230.24,326.62,233.37,334.87,227.51,333.43Zm34.1-13.91a4.49,4.49,0,0,1-3,1.31c-4.15-.35-4.7-13.2-9.37-12.82a2.91,2.91,0,0,0-2.69,2.88c-.1,4.28,6,9,4.74,13.06a3.45,3.45,0,0,1-3.36,1.85c-4-.36-4.75-13-9.33-12.6a2.76,2.76,0,0,0-2.64,3.1c.18,3.68,8.9,13.64,2.23,14.5-3,.39-4.43-4.76-6.12-8.34s-5.08-8.12-3-10.37c1.05-1.16,2.82-1.16,4.4-.19.74-3.21,6.57-5.82,10-3.88,2.78-5.77,8.52-7.94,12.34-3.67C257,305.75,263.36,316.92,261.61,319.52Zm-37-64.95c4.14-2.43,5.43,4.28,2.43,5.12C224.49,260.41,221.83,256.22,224.64,254.57ZM290,298.35c-.13,1.82-2.45,3.09-4.53,1.85-1.49,10.53-16.62,8.2-18.92-2.25-1.07-4.88,1.66-11.22,8.11-10.75,0-1.75.25-3.56,2.24-4,3.08-.63,8.33,7.67,10.53,10.49C288.42,294.94,290.16,296.59,290,298.35Zm-49.62-92.77a138.46,138.46,0,0,1-44.78,17.71c-4.76,1-10.09,1.41-14.73,2.28-16.45,3.06-26.58,13-36.68,21.91,5.57,9.26,11.38,18.19,17,27.4,2.21-1.4,5.95-3.5,10.05-3.43,5,.08,11.45,3.11,8.06,6.31-.63-.43-.49-2-.82-2.87-.62.43-1.36.78-1,1.84-3.41-2.5-10-2.4-14.1.75a25.78,25.78,0,0,1-1.66-2.46c1.83,4.36,5.35,8.72,7.8,13.14-2,1.11-3.85,2.37-5.84,3.52-1.75-2.83-3.61-5.5-5.23-8.53-11.59,1.87-22.77,1-24.41-12.11-.69-5.56.87-10.56,2.52-15.23.56-1.56,1.74-3.61,1.66-4.54s-2.34-4.34-3.3-5.88c-16.75-26.87-34.66-54.93-51.07-81.49a11.23,11.23,0,0,0-5.29,2.71c.06-1.28-3.19.25-3.78-.17,0-3.57,3.94-4.51,7-6.08-.85-2.35-3.26-1.33-4.14-3.14-4.17-8.57,14.37-8.78,9.66-.78,12-10.57,26.31-17.45,46.38-22.48,11.45-2.86,23.17-4.51,33-7.62a86.69,86.69,0,0,0,25.48-12.63c10.74-7.79,19.77-15.74,35-21.1,3-1,11.59-4.6,15-4.21,2.78.31,7,5.43,9.36,8.15,19.52,22.87,35.14,51.05,45.84,86.76-6.13,1.43-11.51-.55-17.83.8-3.65.78-7.64,2.72-11.27,4.38C257.81,193.3,249.63,199.87,240.42,205.58Zm55,87.23c-3.47,1.08-6.28-4.08-2.84-6C297.65,284.08,299,291.72,295.46,292.81ZM313.2,252.3c-3.69-1.7-6.35-3.06-8.77-4.06-.19,0-.27-.18-.49-.14,2.92,3.11,6.85,7,10.35,10.76,1.19,1.28,2.94,2.58,3.16,4a4,4,0,0,1-2.29,3.74c-2.78.92-7.21-1.69-9.61-2.5-3.53-1.18-6.3-1.84-9.26-3,1.57,2,4.23,3.9,7.11,6.27,1.36,1.12,10.92,7.44,5.5,9.87-3.47,1.55-9.42-5.66-11.29-7.3-1.59-1.39-3.07-2.74-5.13-4.56-1.53-1.37-4.18-3.29-4.55-5.16a4.56,4.56,0,0,1,3-4.81c2.84-.81,6.82,1.49,9.84,2.45,3.46,1.09,6.51,2,9.48,3-2.24-2.41-4.36-4.45-7.06-7.21-2-2-6.09-4.49-6.49-7.8a4.43,4.43,0,0,1,3.05-4.59c1.87-.44,4.58,1.19,6.47,2,4.76,2,7.16,2.87,12.23,5,1.72.73,4.87,1.54,5.39,3.58C325.64,258.75,315.32,253.28,313.2,252.3Zm12.12-3.62c-4,2.31-7.43-3.74-3.74-5.78a4.29,4.29,0,0,1,2.91-.59C327.06,242.9,327.35,247.51,325.32,248.68Zm-8-25.71a2.76,2.76,0,0,1-4-1.07c-.47-1.16.47-3.79.8-5.31.53-2.47.35-5.25,2.23-6.29,1.13-.62,3-.89,3.73,1.12C320.65,212.85,318.58,222.28,317.31,223Zm-3.71-29.86c-2.59.42-6.07-4.23-2.21-6.33C316.86,183.8,318.12,192.37,313.6,193.11Zm23.53-23.46c-.12,2.53-5.63,3.79-8.34,5-3,1.3-6.38,2.94-9.43,4.25,3,1.1,6.38,2,9.71,2.94,2.75.77,8.22,1.14,8.95,3.79,1.4,5.16-5.64,3.26-8.4,2.4-4.86-1.51-9.19-3.07-14-4.63-2.46-.8-6.82-1.4-6.12-4.84.51-2.5,7.33-4.44,11.13-6.22,4.91-2.31,8.35-4.78,11.71-5.65C334.78,166,337.26,166.84,337.13,169.65Z"/><path class="cls-1" d="M315.51,142.48a54.82,54.82,0,0,1,2.17,7.28C322.7,148.69,320.05,140.36,315.51,142.48Z"/><path class="cls-1" d="M320.75,79.5C307.25,62.3,292.62,50,275,38.29a156.81,156.81,0,0,0-57.68-22.91c-21.55-4-47.07-5.15-74.19,1.7a170,170,0,0,0-35.68,13.06C66.22,51.17,38.85,83,24.2,120.83c-10.85,28-17.39,63.64-7.13,104.49C30.19,277.51,59.29,308,93.44,330.19a158.17,158.17,0,0,0,57.68,22.91c21.77,3.94,47,4.91,73.92-1.88,51.89-13.08,82.54-42.11,105.14-76.19,5.35-8.06,9.81-17.6,13.64-27.29s7.32-19.8,9.27-30.38c4-21.58,5.27-46.62-1.7-74.19C345,118,333.84,96.18,320.75,79.5Zm26.3,106.84c-.54,34.27-11.4,61.87-26.26,86.16-10,16.27-23.71,30.75-40,42.66-24.55,18-60.85,32.63-98.69,31.9-34.49-.68-61.76-11.27-86.16-26.26a154.54,154.54,0,0,1-42.85-39.69C40.7,264.43,31.2,244,25,219.5c-6.25-24.74-4.33-50.9-.25-69.34,4.61-20.88,12-37.32,22.46-54.08a153.31,153.31,0,0,1,40-42.67c16.41-12,35.8-22.9,61.6-28.12l.45-.1c24.32-6.14,50.85-4.57,69.34-.24,40,9.35,72.44,29.94,96.58,62.7,12.35,16.76,21.78,36.49,28.12,61.6C346.44,161.75,347.22,174.94,347.05,186.34Z"/><path class="cls-1" d="M275.19,148.78a2.92,2.92,0,0,0-4.72-1.39c-1.21,1-.71,6.07-.65,8.31.08,3.46.43,6.32-.07,8.9-1.95-2.25-3.39-4.22-5.59-6.82-1.12-1.33-4.26-6-6.52-5.69a2.81,2.81,0,0,0-2.42,3.06c.16,2,2.74,3.89,3.83,5.07,1.65,1.81,2.56,2.91,4.23,4.75,1.43,1.58,6.28,8.76,9,8.47,3-.32,2.6-3.53,2.68-6.38.09-3.48,0-8.77.1-12.18C275.06,153,275.64,150.2,275.19,148.78Z"/><path class="cls-1" d="M281.35,73c-.62-1-2.06-1.9-4.58-.71a3.55,3.55,0,0,0-2.33,3.51C274.84,82.73,284.27,77.69,281.35,73Z"/><path class="cls-1" d="M269.84,129.3A183.51,183.51,0,0,0,249.43,100c-1.57-1.89-6.06-7.57-8.1-7.7-1.3-.08-4.23,1.12-6.19,1.72-14.32,4.35-24.89,11-34.23,17.91-5.3,3.92-10.89,8.22-17.49,11.72-8.47,4.48-17.22,6.86-27.91,9.85-7.49,2.09-15,2.71-21.78,4.41C116.87,142.14,104,148,92.5,157c13.63,7.19,23.38,20.22,31.17,36.22,4.83-3.52,9.11-8.22,15.24-11.27,5.75-2.85,11.32-7.17,18.26-9.06,5.89-1.61,12.06-2.14,18.85-3.82,0-1.79-.37-3.87.08-5.39-1.49.83-3,2.68-3.76,3.33,1.67-5.23,5-9.39,9-13-1.49-.11-3.38.4-4.85.28,3.74-2.82,10.3-4.18,14.36-5.25-1.45-.46-3.7-1.25-4.36-1.92,5.73-.83,9.53,1.25,14.73,1.23a9.59,9.59,0,0,0-2.21-2.83c-.62-.57-2.47-1.49-1.71-1.52,4.38,1.6,7.94,4.44,11.88,6.71-.17-1.6-1.06-3.68-.78-5,1.94,3.13,4.17,5.82,5.15,10.4l-.32,0a1,1,0,0,0,1,.38c.62-.06,1.5-1.1,2.83-1.56l-.25-.2c5-5.36,11.92-9.09,18.78-13.38C245.05,135.45,255.63,129.9,269.84,129.3ZM129.93,161.82c.15,2.65-3.65,3.16-5.56,4.86,1.13,2.46,7.6,10.42,1.73,10.87-2.08.16-3.26-2.43-4-3.63-2-3.15-3.87-6.63-6-10.23-2.82-4.66-4-6,1.19-9.12,1.71-1,7.54-5.34,8.58-1.5.93,3.45-4,3.89-6.28,5.94.63,1.31,1.47,2.29,2.12,3.55C123.75,160.85,129.67,157.28,129.93,161.82Zm115.3-35.25c-8.82,3.08-16.48-4.19-16.92-13.17-.24-4.83,3.26-9.82,8.91-11.38,1.73-.48,6.25-1.27,5.89,2.54-.2,2.17-3.38,1.57-6,2.85a5.84,5.84,0,0,0-3.13,4.14c-.77,6.81,5.16,10.46,7.7,10.35a7.18,7.18,0,0,0,5.07-2.66c.77-.83,3.2-4.1,4.85-1.45C253.87,121.41,247.75,125.69,245.23,126.57Z"/><path class="cls-1" d="M294.55,109.34c-1.45,2.61-.4,5.62,1.76,6.42,4.91,1.81,14.29-5.51,13.14-10.13-.74-3-3.36-3.17-5.89-2.55C299.6,104.05,296,106.7,294.55,109.34Z"/><path class="cls-2" d="M285.88,30.72C250.08,7,205.73-6.65,147.84,3.28l-.9.18c-56.8,13.48-92.63,43-116.32,78.69C7.15,117.53-6.79,162.22,3.36,219.91c.09.26,0,.41-.13.5l.13.67c13.36,57.2,43.16,92.76,79,116.5S162.46,375,220.35,365l.9-.18c57.05-13.39,92.56-43.15,116.28-78.91s37.37-80.15,27.44-138l-.14-.68C351.48,90,321.67,54.46,285.88,30.72Zm67.21,186.64c-1.95,10.58-5.45,20.71-9.27,30.38S335.53,267,330.18,275c-22.6,34.08-53.25,63.11-105.14,76.19-26.92,6.79-52.15,5.82-73.92,1.88a158.17,158.17,0,0,1-57.68-22.91C59.29,308,30.19,277.51,17.07,225.32c-10.26-40.85-3.72-76.46,7.13-104.49,14.65-37.86,42-69.66,83.28-90.69a170,170,0,0,1,35.68-13.06c27.12-6.85,52.64-5.72,74.19-1.7A156.81,156.81,0,0,1,275,38.29c17.59,11.67,32.22,24,45.72,41.21C333.84,96.18,345,118,351.39,143.17,358.36,170.74,357.06,195.78,353.09,217.36Z"/><path class="cls-2" d="M315.16,87.65C291,54.89,258.56,34.3,218.58,25c-18.49-4.33-45-5.9-69.34.24l-.45.1C123,30.51,103.6,41.43,87.19,53.41a153.31,153.31,0,0,0-40,42.67c-10.5,16.76-17.85,33.2-22.46,54.08-4.08,18.44-6,44.6.25,69.34C31.2,244,40.7,264.43,53.13,281.11A154.54,154.54,0,0,0,96,320.8c24.4,15,51.67,25.58,86.16,26.26,37.84.73,74.14-13.89,98.69-31.9,16.25-11.91,30-26.39,40-42.66,14.86-24.29,25.72-51.89,26.26-86.16.17-11.4-.61-24.59-3.77-37.09C336.94,124.14,327.51,104.41,315.16,87.65Zm24.68,128.89c-4.25,20.08-12.18,37.23-21.75,53a145,145,0,0,1-38.75,41.72c-8.26,6-16.69,11.69-26.38,16.32-10,4.8-21.08,8.32-33.43,11.44a148.8,148.8,0,0,1-67.59.83C113.4,331.56,80.32,311.21,57,279.61c-12.1-16.42-21.59-35.15-27.76-59.8-6.08-24.34-4.78-48.38-.82-67.59C36.53,113,57,81.46,88.41,57.13,104.08,45,124.12,35.48,148.66,29.28c37.18-9.38,70.79-2.39,96,7.91a158.18,158.18,0,0,1,47.28,30.39c20.74,19.13,38.09,44.8,47.25,81.09C345.43,173.39,343.81,197.74,339.84,216.54Z"/><path class="cls-2" d="M139.36,66.45c5.66.43,2.17-7.07,1.15-10.51,3.55.94,7.47,7.36,11.37,6.57a3,3,0,0,0,2.38-2.12c.28-2.78-2.43-3.84-4.28-5-.89-.55-5.12-2.18-5.35-3.36,0-.2,1.5-2.64,2.06-3.68,1.07-2,2.58-6.06-1.18-5.84-2.44.14-3.51,3.19-4,4.32-.81,1.77-1.24,3.79-2.5,5-.67-2.74-1.5-4.42-2.35-7-.39-1.18-.63-5.42-2.94-6.42-1-.43-3.38,0-4,1.27-.87,1.86,1.08,5.66,1.86,8C133.05,52.09,136.36,66.22,139.36,66.45Z"/><path class="cls-2" d="M155,46.69c1.55,3.49.95,12,3.72,13.74a3.31,3.31,0,0,0,4-.82c1.94-2.91-2.09-10.33-2-14.32,5.93-.51,3.67-6.55-1.09-5.39,0-8.66-9.36-6.61-5.74,1.63C148.92,41.93,151,47.88,155,46.69Z"/><path class="cls-2" d="M123.87,47.62A3.47,3.47,0,0,0,119.19,43C113.5,45.53,121.24,53,123.87,47.62Z"/><path class="cls-2" d="M109.7,75.72c1.39,1,4.67,3.61,6.47,3.13,4.07-1.07.87-9.68-.48-15.09-1.48-5.91-1.53-12.75-4-13.91-1.45-.69-3.59.43-4,1-.9,1.36.18,3.52.55,5,1.45,5.87,2,8.93,3.53,14-2.79-1.74-5.05-3.32-8.14-5.59-1.55-1.14-5.74-6-8.54-5.28a3.28,3.28,0,0,0-2.06,3.69c.34,1.6,3.67,3.79,5.17,4.79C102,70.06,106,73.05,109.7,75.72Z"/><path class="cls-2" d="M181,58.72c12.36-3.55,7.25-26.38-7.36-20.24C163,43,167.78,62.52,181,58.72Zm-4.75-15.4c7.64-3.5,7.31,13.66-.11,9.84C172.89,51.48,173.27,44.7,176.27,43.32Z"/><path class="cls-2" d="M122.66,50.9c-2.87,1.45-.71,4.93.29,7.19,1.58,3.54,4.16,12.64,7.62,12.24,5.21-.6.7-8-1-11.72C127.76,54.56,126.29,49.08,122.66,50.9Z"/><path class="cls-2" d="M215.79,38.83c3.67-1.11,2.37-9-2.89-6.19C209.23,34.57,212.17,39.92,215.79,38.83Z"/><path class="cls-2" d="M197.94,52.26c.2-2.78-.1-5.55,1-6.74,1.66-1.84,7.1-1.16,7.05-4.47-.07-3.73-5.09-3.47-7.28-1.33-.87-1.83-2.39-2.56-3.92-2-2.28.83-2.14,5.38-2.4,8.9-.29,3.84-1,6-.52,9a6.07,6.07,0,0,0,1,2.83C197,61.59,197.83,53.8,197.94,52.26Z"/><path class="cls-2" d="M210.67,60.89c2.69-1,2.92-7.32,3.3-9.08.44-2,4.17-14.54-2.45-11-2.32,1.27-2.37,6.21-3,9.26C207.91,52.81,204.45,63.12,210.67,60.89Z"/><path class="cls-2" d="M229.36,64.35c.38,1.69,1.44,3.18,3.38,2.83,2.82-.52,3.38-5.38,4.34-8.59,1.37-4.61,5-14.15-3.08-10.59-2.64-5.81-11-3.88-14.19.3C214.08,55.72,219.86,69,229.36,64.35Zm-2.36-14c6.47-2.18,5.89,8.88,1.05,9.83C222.27,61.32,222.56,51.84,227,50.35Z"/><path class="cls-2" d="M78.22,96.81c2.82.4,9-3.63,10.1-2C89.49,96.54,86.1,97.46,85,98c-1.68.84-3.31,1.6-3,3.42.8,5.55,8.59.32,10.15-1.82,3.15-4.3,1.2-11.8-5-10.9-2.33.34-7.22,3.81-8,1.86-.64-1.52,1.89-2,3.18-2.75S85,86.4,84.61,84.54c-.53-2.44-3.06-2.19-5.39-1.25-2.76,1.12-6.46,4.44-5.42,9C74.21,94.14,75.72,96.46,78.22,96.81Z"/><path class="cls-2" d="M255.13,79.7c1.79-.36,3.17-3.2,4.17-4.81,2.43-3.94,4.48-7.57,6.62-11.16,1.14-1.92,3.19-4,2.77-5.93s-5.93-5.63-8.41-4.61c-2.87,1.19-.65,5.13,1.45,6-2,3-3.32,5.55-5.41,9-.88,1.47-5.87,6.54-4.56,9.81A3.54,3.54,0,0,0,255.13,79.7Z"/><path class="cls-2" d="M70.3,109.63c1.53,1.13,2.26,2,3.91,3.18,2.23,1.64,7.31,3.08,6.78-1.14-.55-4.38-8.42-5.28-9.5-8.82C70.65,100.1,74,98,72,95s-7.33,1.42-5.51,5.09c-2.85-.25-4.06,1.39-3.81,3.11C63.09,105.91,67.76,107.77,70.3,109.63Z"/><path class="cls-2" d="M176.33,86.3c-10.6,4.1-4.55,21.67,4.27,23.44,7.52,1.5,11.63-5.63,10.8-11.3C190.17,90,184.21,83.26,176.33,86.3Zm7.27,18.63c-5,1.32-11.06-12.3-5.24-14.36C183.73,88.66,189.52,103.36,183.6,104.93Z"/><path class="cls-2" d="M272.7,82.22c-3.73,1.29-8.37.57-9.51,2.63-1.6,2.86,2.12,4.41,3.91,4.34,9.15-.33,18.4-5.1,20.32-10.42,2.5-6.89-4.37-13.22-9.86-13C267.64,66.3,265.59,78.51,272.7,82.22Zm1.74-6.43a3.55,3.55,0,0,1,2.33-3.51c2.52-1.19,4-.28,4.58.71C284.27,77.69,274.84,82.73,274.44,75.79Z"/><path class="cls-2" d="M72,128.45a12.3,12.3,0,0,0,2.23-5.13c.46-2.48,0-7.84-3.47-6.77-2.25.69-1.08,3.88-1.74,6.42s-3.49,4.74-6.28,3.61c.73-1.78,1.89-3.54,3.05-5.75.77-1.48,3.1-4.26,2.45-6.34-.82-2.64-6-3.06-9.48-1.82-4.63,1.65-7.52,6.92-5.63,12.59C55.45,132.22,66.55,135.86,72,128.45Zm-9.19-10.76a19.59,19.59,0,0,1-3.71,7.06C56,122,58.27,116.47,62.81,117.69Z"/><path class="cls-2" d="M163.63,92.85c-3.18-1-10.46,4.07-6.45,6.21.93.5,2.19-.27,3.86-.55,1.44,2.94,2.22,5.56,3.75,9.29.67,1.64,2.47,7.61,5,7.4,5.05-.42.14-8.72-1.33-12.35C167.46,100.39,165.6,93.49,163.63,92.85Z"/><path class="cls-2" d="M152.76,113c-.56,2.2-4.31,10.35.74,9.43,2.75-.5,3.6-5.69,4.07-7.6,1.69-6.77,1-17.35-7-17.28a9.77,9.77,0,0,0-8.52,5.23C139.07,109.63,146.66,117.5,152.76,113Zm-4.55-9.83c4.5-2.42,6.36,5.42,2.17,6.1C147.27,109.82,145.26,104.79,148.21,103.21Z"/><path class="cls-2" d="M132.82,110.3c1.46,2.88,2.25,5.64,3.75,9.29.74,1.82,2.46,7.76,5.22,7.35,3.31-.49,1.74-4.48.66-7.14-.83-2.06-1.51-3.42-2.21-5.16-1.09-2.68-2.68-9.3-4.83-10-1.76-.58-7.49,1.69-7.67,3.66C127.45,111.27,130,111.31,132.82,110.3Z"/><path class="cls-2" d="M285.12,92.79c-1.32,1.17-7.38,5.18-6.76,8.15,1,4.92,6.39.12,8.12-1.42,1.94-1.7,3.26-2.7,5-4.27,2.12-1.94,8.92-6.62,8.6-9.45-.21-1.88-4.09-6.21-6.17-6.23-3.63,0-2.74,4.11-.61,6.2C290.36,88,288.22,90,285.12,92.79Z"/><path class="cls-2" d="M41.59,146.75c4.5,1.41,8.84,3,13,4.37,2.47.79,10.23,2.89,8.39-2.4-1.1-3.17-6.13-2.19-8.54-4.11,4.2-1.85,14.84-2.94,12.15-8.07-2-3.74-10.28,2.81-12.79,2.59-1.22-2-2-6.31-4-7.13s-3.84.77-3.58,3.06c.37,3.37,3.52,4.92,4.28,8.48-3.8-1.25-6.26-2-10.2-3.07-2-.54-6.79-.79-4.89,3.56C36.12,145.6,39.42,146.07,41.59,146.75Z"/><path class="cls-2" d="M246.78,119.24a7.18,7.18,0,0,1-5.07,2.66c-2.54.11-8.47-3.54-7.7-10.35a5.84,5.84,0,0,1,3.13-4.14c2.59-1.28,5.77-.68,6-2.85.36-3.81-4.16-3-5.89-2.54-5.65,1.56-9.15,6.55-8.91,11.38.44,9,8.1,16.25,16.92,13.17,2.52-.88,8.64-5.16,6.4-8.78C250,115.14,247.55,118.41,246.78,119.24Z"/><path class="cls-2" d="M299.91,97.74c-6.71,2.37-13.36,8.19-11.78,15.7,2.95,14,21.16,8.32,26-1C318.74,103.32,310.25,94.09,299.91,97.74Zm9.54,7.89c1.15,4.62-8.23,11.94-13.14,10.13-2.16-.8-3.21-3.81-1.76-6.42s5.05-5.29,9-6.26C306.09,102.46,308.71,102.66,309.45,105.63Z"/><path class="cls-2" d="M55.49,155.39c-1.47,1.41.17,3.57-.08,5.39-.66,4.78-9.68,4.72-10.78-.16-.7-3.14,2.8-3.57,1.65-6.87-.77-2.21-2.92-1.48-3.73-1.12-2.78,1.25-3.87,6.76-3.12,10,1.75,7.58,13.48,11.07,19.14,4.54a12.42,12.42,0,0,0,2.23-7.46C60.54,156.69,58.33,152.67,55.49,155.39Z"/><path class="cls-2" d="M121.66,162.56c-.65-1.26-1.49-2.24-2.12-3.55,2.26-2,7.21-2.49,6.28-5.94-1-3.84-6.87.46-8.58,1.5-5.15,3.14-4,4.46-1.19,9.12,2.17,3.6,4.09,7.08,6,10.23.75,1.2,1.93,3.79,4,3.63,5.87-.45-.6-8.41-1.73-10.87,1.91-1.7,5.71-2.21,5.56-4.86C129.67,157.28,123.75,160.85,121.66,162.56Z"/><path class="cls-2" d="M35.42,176.27c-.57-1.86-2.19-3-4.81-1.83A3.23,3.23,0,0,0,28.55,177C28.28,183.36,36.91,181.19,35.42,176.27Z"/><path class="cls-2" d="M47.33,180.87c2.3.06,9.7,1.26,11-1.28,2.42-4.92-5.3-4.53-8.41-4.61-4.18-.1-8.73-1.26-11.37.43a3.2,3.2,0,0,0-1.25,3.06C38.11,181.69,44.48,180.8,47.33,180.87Z"/><path class="cls-2" d="M50.39,205.25c3.58-.15,11.63,0,8.53-5.23-1.85-3.09-9.88.44-12.36-1,2.33-1.88,4-3.84,6.46-6.21,1.82-1.8,6-4.43,5.59-7-1-6.22-7.49.95-9.06,2.54-2.24,2.26-4.17,3.85-5.92,5.4-2.47-1.57-6.27-7.12-9-7.75-2.21-.5-4.07,1.13-3.86,2.89.25,2.07,3.9,4.28,5.58,5.64,2.24,1.81,4.55,3.12,5.67,4.93-3.23.61-6.59-.43-9,.65a3.13,3.13,0,0,0-.84,5.08c1.38,1.32,8.48.52,12,.37C46.46,205.49,48.54,205.33,50.39,205.25Z"/><path class="cls-2" d="M312,143.44c1.76,2.46,2,12,4.66,12.61,2.35.54,5.56-2.25,6.37-3.16a10.9,10.9,0,0,0,2.27-7.24c-1.33-13.12-19.58-10.89-21.15-.62-.71,4.62,3.55,14.06,8.29,12.1,3.23-1.34-.32-4.52-1.14-5.61C309.2,148.8,308.67,144.27,312,143.44Zm5.72,6.32a54.82,54.82,0,0,0-2.17-7.28C320.05,140.36,322.7,148.69,317.68,149.76Z"/><path class="cls-2" d="M310.25,160.37c-4.07,1.72-1.52,7.11,2,6.38C316.51,165.84,314.94,158.39,310.25,160.37Z"/><path class="cls-2" d="M60,221.54c-2.08,1-2.43,2.45-1.7,4.31,1.08,2.77,5.81,2.43,6.51-.15A3.41,3.41,0,0,0,60,221.54Z"/><path class="cls-2" d="M332.32,166.65c-3.36.87-6.8,3.34-11.71,5.65-3.8,1.78-10.62,3.72-11.13,6.22-.7,3.44,3.66,4,6.12,4.84,4.83,1.56,9.16,3.12,14,4.63,2.76.86,9.8,2.76,8.4-2.4-.73-2.65-6.2-3-8.95-3.79-3.33-.94-6.73-1.84-9.71-2.94,3.05-1.31,6.44-3,9.43-4.25,2.71-1.17,8.22-2.43,8.34-5C337.26,166.84,334.78,166,332.32,166.65Z"/><path class="cls-2" d="M71.18,242.17c.35-5.91-4.72-14.68-9.28-12.37-4.21,2.12,1.42,5.31,2.49,7.67,3.68,8.13-10,14.46-14.62,8.57-1.78-2.28-.61-8.4-4.24-8.26-6.5.27-.8,11.68.84,13.38C53.85,259,70.58,252.42,71.18,242.17Z"/><path class="cls-2" d="M311.39,186.78c-3.86,2.1-.38,6.75,2.21,6.33C318.12,192.37,316.86,183.8,311.39,186.78Z"/><path class="cls-2" d="M74.57,250.83c-2.11.64-3.08,1.91-2.41,4.23,1.22,4.24,7.79,2.21,6.59-2A3.13,3.13,0,0,0,74.57,250.83Z"/><path class="cls-2" d="M316.38,210.3c-1.88,1-1.7,3.82-2.23,6.29-.33,1.52-1.27,4.15-.8,5.31a2.76,2.76,0,0,0,4,1.07c1.27-.69,3.34-10.12,2.8-11.55C319.36,209.41,317.51,209.68,316.38,210.3Z"/><path class="cls-2" d="M85.87,262.8a3.21,3.21,0,0,0-2.56-2.29c-4-.18-6,5.16-9.28,6.09-1.59-1.27-3.25-5.68-5.81-5.61-5.75.18-.29,7.59,1.37,9.07a13.35,13.35,0,0,1-3.41,2.8c-2.31-1.82-3.61-7.13-7.11-6.28-2.67.65-1.68,3.7-.53,5.49,1.51,2.34,5.33,7.89,7.66,7.79,1.65-.07,4-2.49,5.56-3.69l5.24-4.1C80,269.73,86.54,266,85.87,262.8Z"/><path class="cls-2" d="M214.14,259.27c1.08,1.16,3,3.82,4.72,3.71,3.53-.22,1.45-8.67,1.14-12.84-.22-3,.22-11.59-2.5-12.35-4.19-1.16-2.56,5.82-2.22,8.63.41,3.43.95,5.41.82,8.71-1.7-2.3-3.86-4.25-5.71-6.32-1.45-1.61-4-6.16-6.31-5.73-4.47.82.24,5.75,1.73,7.36C208.56,253.4,211.5,256.43,214.14,259.27Z"/><path class="cls-2" d="M195.75,250.37c-.77-4.74-10.92,1.06-11.27,2-.89,2.51,2.84,8,4.07,10.86,1.43,3.35,3.21,9.62,5.27,9.91,1.25.18,4-1.43,5.43-2,1.22-.52,4.19-1.41,4.31-3,.35-4.57-5.63-2.28-8.09-.7-.56-1.49-1.8-3.53-1.9-4.75,1.88-1.27,5.18-1.44,5.39-3.43.43-4.15-4.94-2.54-7.69-1-.21-1.53-1.39-2.52-1.22-3.73C192.74,253.32,196.21,253.24,195.75,250.37Z"/><path class="cls-2" d="M224.64,254.57c-2.81,1.65-.15,5.84,2.43,5.12C230.07,258.85,228.78,252.14,224.64,254.57Z"/><path class="cls-2" d="M318.45,248.2c-5.07-2.13-7.47-3-12.23-5-1.89-.77-4.6-2.4-6.47-2a4.43,4.43,0,0,0-3.05,4.59c.4,3.31,4.49,5.75,6.49,7.8,2.7,2.76,4.82,4.8,7.06,7.21-3-1-6-1.89-9.48-3-3-1-7-3.26-9.84-2.45a4.56,4.56,0,0,0-3,4.81c.37,1.87,3,3.79,4.55,5.16,2.06,1.82,3.54,3.17,5.13,4.56,1.87,1.64,7.82,8.85,11.29,7.3,5.42-2.43-4.14-8.75-5.5-9.87-2.88-2.37-5.54-4.3-7.11-6.27,3,1.19,5.73,1.85,9.26,3,2.4.81,6.83,3.42,9.61,2.5a4,4,0,0,0,2.29-3.74c-.22-1.45-2-2.75-3.16-4-3.5-3.77-7.43-7.65-10.35-10.76.22,0,.3.13.49.14,2.42,1,5.08,2.36,8.77,4.06,2.12,1,12.44,6.45,10.64-.52C323.32,249.74,320.17,248.93,318.45,248.2Z"/><path class="cls-2" d="M83.5,286.87c-4.35,1.93,1.61,6.2,2.62,7.18,1.89,1.83,3,3.78,4.91,3.45a2.77,2.77,0,0,0,2.19-3c-.24-1.56-2.6-3-4.18-4.53C87.17,288.19,85.78,285.87,83.5,286.87Z"/><path class="cls-2" d="M205.93,262.56c-2.93,1.72.06,5.62,2.21,5.16C211.9,266.92,209.68,260.36,205.93,262.56Z"/><path class="cls-2" d="M324.49,242.31a4.29,4.29,0,0,0-2.91.59c-3.69,2-.27,8.09,3.74,5.78C327.35,247.51,327.06,242.9,324.49,242.31Z"/><path class="cls-2" d="M133.4,303.65c-.56-1.89-3.23-3.12-5-2.73-1.6.35-2.52,1.79-3.81,3.11-3.75,3.84-6.57,6.9-10.3,10.26.92-3.1,1.73-6,2.76-9.44.66-2.23,3.16-7,2-10a4.47,4.47,0,0,0-4.45-2.37c-2.07.34-3.43,2.77-4.93,4.5-3.19,3.66-5.64,6.05-8.78,9.72-1.19,1.39-3.46,3.94-3.31,5.58a3,3,0,0,0,2.93,2.91c3-.22,6.13-6,7.17-7.29,2.31-2.89,4.16-5.62,6.18-7.56-1,3-2,5.78-3,9.26-.6,1.93-3.07,7.75-2.44,9.84.33,1.11,2.45,2.69,3.77,2.51s3-2.1,4-3.16c3.54-3.47,7.45-7.81,10.4-10.31,0-.08.06-.15.08-.22l.23-.05-.31.27c-1,2.79-2.22,5.22-3.89,9-.9,2-3.73,6.67-2.86,9a3.05,3.05,0,0,0,3.6,1.61c2.06-.55,2.58-3.72,3.31-5.57,1.85-4.72,3.23-7.85,5-12.23C132.44,308.48,134,305.61,133.4,303.65Z"/><path class="cls-2" d="M139.5,303.81c-2.46,1.31-1.58,6.5,1.81,5.48C144,308.47,143.61,301.65,139.5,303.81Z"/><path class="cls-2" d="M147.79,311.25c2.46-.92,2.16-6.62-1.37-5.57C142.39,306.9,144.37,312.52,147.79,311.25Z"/><path class="cls-2" d="M146.44,313.86c-2.6.57-3.2,4.83-3.8,6.61-.83,2.47-1.17,6.23-3.76,6.83a3.53,3.53,0,0,1-3.68-2.05c-.54-1.74.81-4.66,1.6-7.1.48-1.5,2.67-4.63,1.15-7-.77-1.21-2.71-1.26-3.86-.62-1.85,1-5.19,12.14-5.05,14.34.4,6,7.76,9.6,13.23,7.6,3.1-1.13,4.37-5,5.37-8.1C148.16,322.75,152.55,312.52,146.44,313.86Z"/><path class="cls-2" d="M157.28,317.74c-.09-3.35,2.67-7.5.15-9.61-4.24-3.56-5.28,4.17-5.68,6.52-.72,4.12-1.78,9.21-2.49,13.12-.61,3.4-1.83,9.87,2.89,8.53s1.37-13.62,6.35-14.83a2.77,2.77,0,0,1,3.32,1.42c1.45,2.69-4.62,17.72,2.47,15.63,1.85-.55,2.51-4.09,3-6.93s1.37-5.74,1.15-8.17C167.89,316.76,162.15,315.58,157.28,317.74Z"/><path class="cls-2" d="M276.94,283.24c-2,.4-2.2,2.21-2.24,4-6.45-.47-9.18,5.87-8.11,10.75,2.3,10.45,17.43,12.78,18.92,2.25,2.08,1.24,4.4,0,4.53-1.85s-1.62-3.41-2.57-4.62C285.27,290.91,280,282.61,276.94,283.24Zm1.29,18c-3.84.56-8.7-6.46-4.15-9C280.31,288.8,284.58,300.28,278.23,301.2Z"/><path class="cls-2" d="M174.51,310.51c-2.61.87-2.22,3.9-2.41,6.57-.38,5.24-.61,9.09-1,14.46-.27,3.33-1.17,9.7,3.48,7.94,1.9-.71,1.84-4.12,2-6.24.34-4.39,1-10,1.31-14.29C178.14,315.38,178.55,309.18,174.51,310.51Z"/><path class="cls-2" d="M292.62,286.84c-3.44,1.89-.63,7.05,2.84,6S297.65,284.08,292.62,286.84Z"/><path class="cls-2" d="M186.3,320.28c-.59-3,1-8.19-1.69-9.48-5-2.38-4.42,5.53-4.38,8.37,0,2,0,4.33,0,7,0,4.34-1,17.26,5,13,3.64-2.59-2-13.61,3.2-15.37,8.89-3,.38,18.06,8.34,15.84,2.89-.81,2.61-9.5,2-14.2C197.89,318.13,192.08,317.32,186.3,320.28Z"/><path class="cls-2" d="M220,305.51c-2.69,1.51-1.3,6.19,1.5,6.24C227.3,311.86,225.32,302.52,220,305.51Z"/><path class="cls-2" d="M243.4,308c-3.39-1.94-9.22.67-10,3.88-1.58-1-3.35-1-4.4.19-2,2.25,1.31,6.74,3,10.37s3.12,8.73,6.12,8.34c6.67-.86-2.05-10.82-2.23-14.5a2.76,2.76,0,0,1,2.64-3.1c4.58-.43,5.32,12.24,9.33,12.6a3.45,3.45,0,0,0,3.36-1.85c1.24-4.08-4.84-8.78-4.74-13.06a2.91,2.91,0,0,1,2.69-2.88c4.67-.38,5.22,12.47,9.37,12.82a4.49,4.49,0,0,0,3-1.31c1.75-2.6-4.62-13.77-5.87-15.17C251.92,300.08,246.18,302.25,243.4,308Z"/><path class="cls-2" d="M222.35,313.68a2.46,2.46,0,0,0-1.17,2.34c.06,3.21,4.56,17,6.33,17.41,5.86,1.44,2.73-6.81,1.5-11.05C227.84,318.32,226.66,310.81,222.35,313.68Z"/><path class="cls-2" d="M219.82,326.58c.42-13-16.32-12.56-19.1-3.15-2.88,9.77,5.94,16.44,14.63,13.4,1.94-.68,7.75-4.77,4.34-7.42-2.19-1.71-5.7,3.18-9.2,3-1.65-.07-2.73-1.06-3.69-3.23C211.14,328.16,216.38,328.13,219.82,326.58ZM214,324.26c-2.54.41-5,.65-7.68,1.32C205.29,320.73,213.2,319.14,214,324.26Z"/><path class="cls-2" d="M297.37,183.31c-10.7-35.71-26.32-63.89-45.84-86.76-2.32-2.72-6.58-7.84-9.36-8.15-3.44-.39-12,3.16-15,4.21-15.22,5.36-24.25,13.31-35,21.1a86.69,86.69,0,0,1-25.48,12.63c-9.87,3.11-21.59,4.76-33,7.62-20.07,5-34.42,11.91-46.38,22.48,4.71-8-13.83-7.79-9.66.78.88,1.81,3.29.79,4.14,3.14-3,1.57-7,2.51-7,6.08.59.42,3.84-1.11,3.78.17a11.23,11.23,0,0,1,5.29-2.71c16.41,26.56,34.32,54.62,51.07,81.49,1,1.54,3.2,4.86,3.3,5.88s-1.1,3-1.66,4.54c-1.65,4.67-3.21,9.67-2.52,15.23,1.64,13.13,12.82,14,24.41,12.11,1.62,3,3.48,5.7,5.23,8.53,2-1.15,3.8-2.41,5.84-3.52-2.45-4.42-6-8.78-7.8-13.14a25.78,25.78,0,0,0,1.66,2.46c4.09-3.15,10.69-3.25,14.1-.75-.33-1.06.41-1.41,1-1.84.33.87.19,2.44.82,2.87,3.39-3.2-3.1-6.23-8.06-6.31-4.1-.07-7.84,2-10.05,3.43-5.61-9.21-11.42-18.14-17-27.4,10.1-8.95,20.23-18.85,36.68-21.91,4.64-.87,10-1.3,14.73-2.28a138.46,138.46,0,0,0,44.78-17.71c9.21-5.71,17.39-12.28,27.85-17.09,3.63-1.66,7.62-3.6,11.27-4.38C285.86,182.76,291.24,184.74,297.37,183.31ZM80.15,156c-1.05-3.1,3.06-3,4.66-2.35A6.32,6.32,0,0,1,80.15,156ZM90,161c-.08-.18,0-.23.18-.27l.45-.09c11.46,5.69,23.24,19.35,29.23,33.57s14.74,27.67,18.42,43.71C122.07,212.53,106.29,186.41,90,161Zm66.21,119.32c-10.28,1.46-18.18-.24-19.11-10.15-.53-5.58,1.63-10.76,3.15-15.59C145.7,262.83,151.58,271.93,156.25,280.33Zm7.49-61.1c-2.21.77-11.53-5.1-14.56-6.16,1.19,3,6.2,11.32.74,11.76-3.22.26-6.87-11.82-8.66-16.24-1.13-2.78-3.43-8.47,1.69-7.82,2.71.35,2.76,5.47,4.69,8.17a62.17,62.17,0,0,0,2.41-6.57c.63-1.84,1.11-5.34,3-6a2.57,2.57,0,0,1,3.28,1.21c1.5,3.38-3.33,8.57-3.3,11.41,1.79.69,3.8,2,6.25,3.18,2.13,1,5.14,1.51,5.85,3.49A2.59,2.59,0,0,1,163.74,219.23ZM204.92,178c1.65.55,4.25,1.21,6,.66-.35,1-2,1.26-3.19,1.58-5.77,1.55-9.65.34-14.5,1.07,1.24,1.34,2.5,2.67,4.36,3.09-6-.1-11.26-3.73-15.87-6.84-.64,1,.28,3.82.78,5-3.15-2.89-5.31-8.09-6.41-13.19,4.44-.93,8.21-.85,12.71-1.87-.08-.17-.28-.18-.32-.4-2.11-8.5,13.83-11.93,14.72-3.45-1.24-.54-1.55.88-2.73,1.49-3,1.53-7.95,2.05-11.67,2.36,1.22,2.7,3.16,4.82,6.11,4.84,5.32,0,9.67-4.36,8.16-8.19,3.65-2,7.56-3.82,9.85-6.71a2.13,2.13,0,0,0,1.55.35h0a8.44,8.44,0,0,0,2.36-1.32c-.47,4.91-1.4,9.52-3.81,13.14,1.82-.8,4.16-1.25,5.34-2.48,0-.18.14-.3.4-.31C215.84,171.59,210.13,174.6,204.92,178Zm11.9-23.2.25.2c-1.33.46-2.21,1.5-2.83,1.56a1,1,0,0,1-1-.38l.32,0c-1-4.58-3.21-7.27-5.15-10.4-.28,1.3.61,3.38.78,5-3.94-2.27-7.5-5.11-11.88-6.71-.76,0,1.09.95,1.71,1.52a9.59,9.59,0,0,1,2.21,2.83c-5.2,0-9-2.06-14.73-1.23.66.67,2.91,1.46,4.36,1.92-4.06,1.07-10.62,2.43-14.36,5.25,1.47.12,3.36-.39,4.85-.28-4.07,3.65-7.37,7.81-9,13,.78-.65,2.27-2.5,3.76-3.33-.45,1.52,0,3.6-.08,5.39-6.79,1.68-13,2.21-18.85,3.82-6.94,1.89-12.51,6.21-18.26,9.06-6.13,3-10.41,7.75-15.24,11.27-7.79-16-17.54-29-31.17-36.22,11.47-9.06,24.37-14.87,41.23-19.09,6.77-1.7,14.29-2.32,21.78-4.41,10.69-3,19.44-5.37,27.91-9.85,6.6-3.5,12.19-7.8,17.49-11.72,9.34-6.9,19.91-13.56,34.23-17.91,2-.6,4.89-1.8,6.19-1.72,2,.13,6.53,5.81,8.1,7.7a183.51,183.51,0,0,1,20.41,29.29c-14.21.6-24.79,6.15-34.24,12.07C228.74,145.66,221.81,149.39,216.82,154.75Zm55.42,18.69c-2.68.29-7.53-6.89-9-8.47-1.67-1.84-2.58-2.94-4.23-4.75-1.09-1.18-3.67-3.1-3.83-5.07a2.81,2.81,0,0,1,2.42-3.06c2.26-.29,5.4,4.36,6.52,5.69,2.2,2.6,3.64,4.57,5.59,6.82.5-2.58.15-5.44.07-8.9-.06-2.24-.56-7.3.65-8.31a2.92,2.92,0,0,1,4.72,1.39c.45,1.42-.13,4.2-.17,6.1-.06,3.41,0,8.7-.1,12.18C274.84,169.91,275.23,173.12,272.24,173.44Z"/></svg>